<?xml version="1.0" encoding="UTF-8" standalone="no"?>
<!-- Created with Inkscape (http://www.inkscape.org/) -->

<svg
   width="384mm"
   height="64mm"
   viewBox="0 0 384.00001 64"
   version="1.1"
   id="svg5"
   xml:space="preserve"
   sodipodi:docname="flowers.svg"
   inkscape:version="1.2.1 (9c6d41e, 2022-07-14)"
   xmlns:inkscape="http://www.inkscape.org/namespaces/inkscape"
   xmlns:sodipodi="http://sodipodi.sourceforge.net/DTD/sodipodi-0.dtd"
   xmlns="http://www.w3.org/2000/svg"
   xmlns:svg="http://www.w3.org/2000/svg"><sodipodi:namedview
     id="namedview7"
     pagecolor="#ffffff"
     bordercolor="#999999"
     borderopacity="1"
     inkscape:showpageshadow="0"
     inkscape:pageopacity="0"
     inkscape:pagecheckerboard="0"
     inkscape:deskcolor="#d1d1d1"
     inkscape:document-units="mm"
     showgrid="false"
     inkscape:zoom="0.58843298"
     inkscape:cx="708.66184"
     inkscape:cy="256.61376"
     inkscape:window-width="1512"
     inkscape:window-height="842"
     inkscape:window-x="0"
     inkscape:window-y="38"
     inkscape:window-maximized="1"
     inkscape:current-layer="layer1" /><defs
     id="defs2" /><g
     inkscape:label="Layer 1"
     inkscape:groupmode="layer"
     id="layer1"
     transform="translate(-69.739449,-138.98196)"><rect
       style="fill:#212529;fill-opacity:1;stroke-width:6.49637;stroke-linecap:round;stroke-linejoin:bevel;paint-order:markers stroke fill"
       id="rect5981"
       width="384"
       height="64"
       x="69.739449"
       y="138.98196" /><path
       style="fill:#f8f9fa;fill-opacity:1;stroke-width:0.172927"
       d="m 229.45806,195.65007 c -0.16643,-0.1979 -0.6679,-0.72317 -1.11436,-1.16727 -0.93781,-0.93288 -1.13746,-1.52197 -0.83072,-2.45134 0.19652,-0.59552 0.18144,-0.72193 -0.15016,-1.25849 l -0.36865,-0.59647 0.35398,-0.44999 0.35397,-0.45001 -0.39738,-0.6958 c -0.21856,-0.38269 -0.44247,-0.6964 -0.4976,-0.69714 -0.0551,-6.5e-4 -0.58377,0.43626 -1.17478,0.97109 -0.59101,0.53484 -1.12954,0.91762 -1.19674,0.85064 -0.0672,-0.0671 -0.14873,-0.93306 -0.18117,-1.92464 -0.0555,-1.69738 -0.0292,-1.86666 0.45095,-2.89266 0.28049,-0.59938 0.83426,-1.43068 1.23062,-1.84734 0.57829,-0.6079 0.67708,-0.79918 0.50013,-0.96824 -0.42745,-0.40844 -3.18489,-1.77176 -3.82727,-1.89227 l -0.65049,-0.12203 0.38913,-0.41422 c 0.49065,-0.52225 1.9663,-1.22721 2.87204,-1.37205 l 0.69213,-0.11067 0.10006,-0.97581 c 0.063,-0.6143 0.31987,-1.40483 0.69339,-2.13386 l 0.59334,-1.15804 -0.50514,-0.11096 c -0.62383,-0.13701 -3.20861,0.17716 -4.5118,0.5484 -0.80698,0.22989 0.25509,-1.9204 1.4564,-2.94868 1.26231,-1.08049 2.3689,-1.51685 4.09657,-1.61534 l 1.52583,-0.087 0.32988,-0.62138 c 0.18143,-0.34177 0.79904,-1.10172 1.37248,-1.68878 l 1.04262,-1.06741 -0.40024,-0.58008 c -0.71677,-1.03886 -1.13103,-2.76412 -1.04719,-4.36135 0.0409,-0.78074 0.13672,-1.52016 0.21272,-1.64317 0.0952,-0.15411 0.39126,0.17043 0.95224,1.04404 0.4477,0.69722 1.10879,1.52532 1.46907,1.84021 0.58119,0.50799 0.68713,0.54442 0.93967,0.32306 0.58656,-0.51406 1.28628,-0.52367 2.48187,-0.0341 0.26073,0.10675 0.2758,0.0539 0.12971,-0.45567 -0.0909,-0.31706 -0.16534,-0.83375 -0.16534,-1.1482 0,-0.62679 0.4257,-1.59214 0.70212,-1.59214 0.10806,0 0.13308,-0.31253 0.0657,-0.82142 -0.11882,-0.89818 0.27581,-2.77129 0.73336,-3.48092 l 0.2653,-0.41142 0.50813,0.93021 c 0.27946,0.51162 0.79635,1.23144 1.14863,1.59959 0.65523,0.68476 1.89582,1.66518 2.10704,1.66518 0.0646,0 0.0157,-0.48636 -0.1088,-1.08082 -0.33447,-1.59612 -0.3078,-2.20484 0.0966,-2.20484 0.3103,0 1.92792,1.15309 2.17226,1.54845 0.19373,0.31345 0.61014,0.19613 0.61014,-0.1719 0,-1.37246 2.76217,-3.88535 4.76296,-4.33311 0.8119,-0.18169 0.98283,-0.17026 1.38387,0.0925 0.25166,0.16488 0.58629,0.52608 0.74363,0.80266 0.28408,0.49938 0.29743,0.50287 1.92889,0.5063 0.90354,0.002 1.81434,0.0494 2.02397,0.10565 0.35212,0.0945 0.3736,0.0558 0.28217,-0.50777 -0.11187,-0.68936 0.17751,-2.07423 0.67507,-3.23063 l 0.33481,-0.77819 0.41273,0.80623 c 0.52787,1.03113 1.81774,2.12123 2.32101,1.9615 0.29755,-0.0945 0.34143,-0.20907 0.25546,-0.66735 -0.0686,-0.36622 0.0267,-0.90261 0.28214,-1.58623 0.48208,-1.29015 1.99678,-2.86175 3.61541,-3.75126 1.93373,-1.06266 1.83043,-1.12115 1.82256,1.03219 -0.005,1.02249 0.0541,2.07754 0.12868,2.34457 l 0.13549,0.48549 0.66104,-0.52354 c 0.71893,-0.56941 1.52091,-0.9339 1.74717,-0.79405 0.0785,0.0485 0.0358,0.53542 -0.0949,1.08204 -0.13062,0.54662 -0.24029,1.2368 -0.24366,1.53375 -0.007,0.49498 0.0497,0.54885 0.66555,0.64734 0.45885,0.0734 0.94563,0.35367 1.53593,0.8844 l 0.86419,0.77699 0.49598,-0.992 c 0.64151,-1.28303 1.13356,-1.57164 2.16259,-1.26846 0.59491,0.17528 1.12891,0.60216 2.52577,2.01908 l 1.77136,1.79684 0.23433,-0.55923 c 0.34893,-0.83266 1.10617,-1.65316 1.89899,-2.05763 1.16798,-0.59584 3.36143,-0.21214 3.69057,0.64561 0.0531,0.13809 -0.0953,0.50318 -0.32953,0.81132 -0.72433,0.95291 -1.82894,3.50284 -1.61157,3.72021 0.0424,0.0424 0.30975,-0.0888 0.59428,-0.29141 1.48211,-1.05535 4.57747,-1.20811 5.82249,-0.28733 0.3264,0.24142 0.31383,0.27514 -0.37154,0.99593 -1.20891,1.27144 -1.28942,1.45203 -1.00577,2.25601 0.1349,0.38234 0.24526,0.91882 0.24526,1.19219 0,0.27339 0.0584,0.50813 0.1297,0.52167 0.0713,0.0136 0.39355,0.0461 0.71606,0.0724 0.63403,0.0516 0.83681,0.2505 0.99465,0.97548 0.0887,0.40698 0.16524,0.45454 0.59418,0.36875 0.7451,-0.14902 1.23352,0.0379 2.10671,0.8066 0.46509,0.40937 0.84041,0.6251 0.90519,0.52025 0.0609,-0.0985 0.41359,-0.33362 0.78379,-0.52247 1.00827,-0.5144 2.69265,-0.47201 3.81346,0.096 0.47686,0.24163 0.90414,0.53606 0.9495,0.65429 0.0453,0.11821 -0.35361,0.87378 -0.88661,1.67901 -1.4166,2.14017 -1.89236,3.11873 -1.60485,3.30096 0.12711,0.0805 0.31315,0.1477 0.41342,0.14916 0.10027,0.002 0.53313,0.22513 0.9619,0.49705 0.75158,0.47665 1.94566,1.99513 1.8335,2.33161 -0.0301,0.09 -0.75118,0.36698 -1.6026,0.61544 -1.45079,0.42336 -1.55161,0.48294 -1.60489,0.9483 -0.0533,0.46655 -0.0273,0.48914 0.43232,0.37351 0.26905,-0.0676 0.97944,-0.11942 1.57864,-0.11497 0.8513,0.007 1.28603,0.11343 1.98868,0.48999 1.37331,0.73597 1.28037,1.08821 -0.62855,2.38199 -1.50854,1.02243 -1.52269,1.03864 -1.12402,1.28799 1.55859,0.97491 2.92267,3.15826 3.2481,5.19895 0.20882,1.3094 0.24019,3.28567 0.0522,3.28555 -0.0713,-4e-5 -0.46907,-0.39415 -0.88386,-0.87581 -0.41479,-0.48163 -1.15007,-1.18867 -1.63396,-1.57115 l -0.87979,-0.69545 -0.42463,0.92276 c -0.27085,0.58858 -0.43063,1.26046 -0.44119,1.85519 -0.0141,0.79491 -0.0834,0.98243 -0.47046,1.27135 -0.39635,0.29593 -0.43156,0.39801 -0.27778,0.80542 0.44193,1.17083 -0.66244,3.98176 -1.80465,4.59334 -0.55652,0.29798 -0.68782,0.31079 -1.07292,0.10469 -0.24134,-0.12915 -0.72361,-0.6638 -1.07171,-1.18807 -0.54934,-0.82735 -0.61999,-1.04762 -0.53498,-1.66787 0.082,-0.59819 0.0393,-0.75121 -0.26162,-0.93919 -0.31763,-0.19835 -0.34675,-0.33376 -0.24959,-1.16045 0.10827,-0.92115 0.1029,-0.93589 -0.34038,-0.93589 -0.702,0 -1.41936,-0.52391 -1.7092,-1.2483 -0.34578,-0.8642 -0.33411,-1.10561 0.0863,-1.7859 l 0.35078,-0.56754 -0.92808,-0.43905 c -1.30239,-0.61612 -1.4314,-0.8117 -1.21905,-1.84826 0.16571,-0.80899 0.15107,-0.87094 -0.31028,-1.31295 -0.65155,-0.62423 -0.88426,-1.3721 -0.66492,-2.13691 0.0951,-0.3312 0.17272,-0.62091 0.17272,-0.64379 0,-0.0229 -0.32504,0.12782 -0.72231,0.33489 -0.99701,0.51967 -1.75304,0.45983 -2.70967,-0.21445 -0.43464,-0.30638 -0.81386,-0.48887 -0.84272,-0.40554 -0.15775,0.45549 -2.86908,4.7341 -2.99996,4.7341 -0.19175,0 -0.89006,-1.36131 -1.2606,-2.45743 -0.40884,-1.20945 -0.67753,-3.73696 -0.48726,-4.58375 0.12484,-0.55567 0.0901,-0.91358 -0.1587,-1.63395 -0.1752,-0.50733 -0.3211,-1.21423 -0.32421,-1.57089 -0.004,-0.35667 -0.0414,-0.64848 -0.0852,-0.64848 -0.0437,0 -0.45229,0.40145 -0.90785,0.8921 -1.60623,1.72988 -3.63299,2.92207 -3.70159,2.17737 -0.12132,-1.31687 0.80114,-2.80154 2.67215,-4.30073 0.50999,-0.40862 0.74622,-0.69803 0.60524,-0.74143 -0.34791,-0.10713 -2.53646,-0.62124 -2.64454,-0.62124 -0.0517,0 -0.0942,0.26853 -0.0942,0.59673 0,0.87052 -0.33998,2.33364 -0.71408,3.07319 -0.6702,1.32485 -2.41048,2.90135 -3.20276,2.90135 -0.34766,0 -0.40636,-0.0859 -0.40636,-0.59394 0,-0.32666 0.11818,-1.15583 0.26265,-1.84259 0.21353,-1.01509 0.22161,-1.30424 0.0432,-1.54586 -0.12068,-0.16345 -0.55806,-0.73312 -0.97196,-1.2659 -0.41391,-0.53278 -0.93463,-1.41674 -1.15721,-1.96436 -0.2349,-0.57795 -0.44021,-0.88806 -0.48935,-0.73918 -0.4523,1.37008 -1.51678,5.31894 -1.6026,5.94505 -0.06,0.43796 -0.18664,0.79629 -0.28137,0.79629 -0.32775,0 -1.31206,-1.21053 -1.79115,-2.20282 -0.39088,-0.80958 -0.48257,-1.23947 -0.48907,-2.29331 -0.005,-0.71335 0.0497,-1.50244 0.12022,-1.75355 0.11744,-0.41811 0.0781,-0.46597 -0.46513,-0.5679 -0.34875,-0.0655 -0.76918,-0.32028 -1.01988,-0.61824 -0.36479,-0.43353 -0.45699,-0.47023 -0.63686,-0.25351 -0.11568,0.13937 -0.35642,0.25341 -0.53499,0.25341 -0.39038,0 -0.38847,-0.022 -0.0653,0.75149 0.39464,0.94457 0.25907,3.15915 -0.28026,4.57771 -0.16403,0.43142 -0.18151,0.41832 -0.7801,-0.58497 -1.11722,-1.87253 -2.61222,-3.10267 -4.18375,-3.44257 l -0.57505,-0.12437 0.27241,0.5268 c 0.38328,0.74117 0.33982,1.57917 -0.15892,3.06492 -0.57262,1.70581 -1.91022,4.54874 -2.37089,5.03911 l -0.36856,0.39231 -0.61944,-1.64793 c -0.34069,-0.90634 -0.67851,-1.64974 -0.7507,-1.652 -0.0721,-0.002 -0.47913,0.0481 -0.90433,0.11184 -0.71924,0.10786 -2.37497,-0.0859 -3.07148,-0.35925 -0.24663,-0.0969 -0.30261,-0.0245 -0.30261,0.39099 0,0.28039 -0.10717,0.86589 -0.23815,1.30111 l -0.23814,0.79131 0.67343,0.65759 c 0.37039,0.36168 0.82735,0.97554 1.01546,1.36413 0.36233,0.74847 0.63742,2.63076 0.45426,3.1081 -0.098,0.25532 -0.16054,0.2476 -0.61486,-0.076 -0.7575,-0.53939 -2.8735,-1.50939 -4.52018,-2.07212 -1.41166,-0.48241 -1.4718,-0.48867 -1.80614,-0.18786 -0.19023,0.17114 -0.60899,0.46869 -0.93061,0.66118 l -0.58474,0.35001 0.8055,0.1208 c 0.83545,0.12528 1.75002,0.63669 2.07617,1.16095 0.45241,0.72721 -0.63235,1.24933 -2.23245,1.07452 -1.5043,-0.16437 -1.32435,-0.33958 0.34875,-0.33958 0.88648,0 1.66789,-0.056 1.73648,-0.1243 0.21802,-0.2173 -0.44588,-1.01944 -1.05406,-1.27357 -0.32244,-0.13472 -1.01676,-0.24495 -1.54292,-0.24495 -0.52616,0 -0.95665,-0.0687 -0.95665,-0.15263 0,-0.084 0.42613,-0.36113 0.94696,-0.61595 1.05857,-0.5179 1.68803,-1.19319 1.61142,-1.72876 -0.0624,-0.43632 -0.80991,-0.56399 -1.53753,-0.26258 -0.48015,0.19886 -1.41486,1.13348 -1.82274,1.82251 -0.21396,0.36146 -0.25305,0.22897 -0.4945,-1.67598 -0.11681,-0.92146 -0.93116,-2.31832 -1.19674,-2.05274 -0.094,0.094 -0.20272,0.67011 -0.24157,1.28018 -0.0583,0.91572 0.006,1.27546 0.36559,2.06206 l 0.43621,0.95281 -0.7196,0.1173 c -0.39579,0.0646 -1.17859,0.35956 -1.73957,0.65562 l -1.01996,0.5383 0.58534,0.23884 c 0.37144,0.15157 1.01276,0.2147 1.75491,0.17277 l 1.16956,-0.0659 v 1.6108 c 0,1.6846 0.3212,2.90046 0.73249,2.77276 0.44149,-0.13707 0.87996,-1.40418 0.99935,-2.88798 l 0.11943,-1.48427 0.0255,1.22233 c 0.0428,2.05035 -0.75658,3.93112 -1.43232,3.3703 -0.41226,-0.34213 -0.67807,-1.39362 -0.69137,-2.73502 -0.0103,-1.04595 -0.0557,-1.23693 -0.27184,-1.14601 -0.14266,0.06 -0.49285,0.19525 -0.77818,0.30053 -0.28533,0.10528 -0.55201,0.21325 -0.59264,0.23993 -0.0405,0.0266 0.1411,0.27287 0.40383,0.54709 0.44853,0.46818 0.47014,0.56043 0.35421,1.51133 -0.16053,1.31662 -0.70179,3.07485 -1.03059,3.34772 -0.15323,0.12717 -0.25895,0.50605 -0.2591,0.92859 -3.6e-4,0.97386 -0.47744,1.83539 -1.22885,2.21921 -0.59749,0.3052 -0.6283,0.36601 -0.72836,1.43757 -0.0574,0.61539 -0.19499,1.29442 -0.30562,1.50895 -0.58762,1.13954 -1.44825,1.48451 -2.01689,0.80841 z m 1.14824,-0.22251 c 0.11253,-0.13559 0.21378,-1.01812 0.23734,-2.06903 0.0323,-1.44361 0.10247,-1.89394 0.3303,-2.12173 0.19233,-0.19228 0.39508,-0.24351 0.60525,-0.15292 0.7985,0.34421 0.82871,0.29907 0.75403,-1.12651 -0.0591,-1.12614 -0.55284,-1.63706 -0.76506,-0.79151 -0.14725,0.58669 -0.93946,1.48323 -1.31062,1.48323 -0.65903,0 -1.89081,-1.65228 -2.15938,-2.89655 -0.14024,-0.64979 -0.25221,-0.68279 -0.80301,-0.23679 l -0.40165,0.32523 0.48285,0.72962 0.48285,0.72964 -0.39721,0.42281 c -0.32886,0.35006 -0.36093,0.47352 -0.1864,0.71766 0.42894,0.59999 0.5604,1.08717 0.38292,1.41884 -0.0951,0.17772 -0.17296,0.60832 -0.17296,0.95686 0,0.48594 0.12524,0.75069 0.53707,1.1354 0.29539,0.27595 0.59897,0.50171 0.67463,0.50171 0.0756,0 0.29827,0.27235 0.49467,0.60524 0.37425,0.6343 0.86926,0.78463 1.21438,0.3688 z m 64.92184,-3.59386 c 0.20773,-0.10935 0.43487,-0.28443 0.50476,-0.38908 0.1833,-0.27456 0.16122,-1.62895 -0.0325,-1.99087 -0.13047,-0.2438 -0.0585,-0.38664 0.34587,-0.68553 0.54659,-0.40411 0.6792,-1.11261 0.33028,-1.76457 -0.13804,-0.25793 -0.1209,-0.35987 0.073,-0.4343 0.34178,-0.13115 0.79907,-1.3181 0.79907,-2.07409 0,-0.77063 -0.22774,-1.22139 -0.97161,-1.92321 l -0.5879,-0.55463 0.11108,-1.44502 c 0.11077,-1.44116 0.1096,-1.44668 -0.43532,-2.06731 -0.51259,-0.58381 -0.58392,-0.61194 -1.15301,-0.45481 -0.33364,0.0921 -0.75202,0.12134 -0.92975,0.0649 -0.29336,-0.0931 -0.30913,-0.0423 -0.17112,0.55226 0.37785,1.62751 0.0657,3.7601 -0.64662,4.41813 -0.23039,0.21282 -0.52607,0.58526 -0.65705,0.82762 -0.23104,0.42754 -0.21666,0.44984 0.48322,0.74967 0.77165,0.33055 1.67244,1.08525 1.67244,1.40121 0,0.10576 -0.25291,0.28646 -0.56202,0.40153 -0.3091,0.11508 -0.74947,0.35437 -0.9786,0.53177 -0.40556,0.31402 -0.40948,0.34024 -0.14839,0.99278 0.28542,0.71331 0.30558,0.79094 0.30558,1.17667 0,0.31853 0.47201,0.79053 0.79053,0.79053 0.1592,0 0.24704,-0.18445 0.24704,-0.51878 0,-0.63934 0.21054,-0.65892 0.67916,-0.0632 0.39066,0.49665 0.46465,1.27078 0.17349,1.81486 -0.13465,0.25156 -0.12888,0.41307 0.0212,0.59387 0.24842,0.29933 0.26096,0.30017 0.73714,0.0495 z m -63.54521,-8.94349 c -0.12129,-0.19422 -0.14506,-0.45271 -0.0596,-0.64848 0.0781,-0.17904 0.14877,-0.3839 0.15699,-0.45522 0.009,-0.0713 0.0671,-0.11025 0.13071,-0.0865 0.0636,0.0238 0.29711,-0.12275 0.51877,-0.32564 0.54783,-0.50139 1.48788,-0.9672 2.21877,-1.09942 0.41158,-0.0744 0.58343,-0.18905 0.53708,-0.35817 -0.0375,-0.13676 -0.1839,-0.64796 -0.32536,-1.13595 -0.28302,-0.97645 -0.18717,-2.21581 0.21376,-2.76412 0.23103,-0.31594 0.25167,-0.31347 0.67072,0.0803 0.2378,0.2234 0.52546,0.63096 0.63926,0.90568 0.11378,0.27472 0.26842,0.46148 0.34363,0.415 0.0752,-0.0465 0.0928,0.0833 0.0392,0.28863 -0.0639,0.24439 -0.0325,0.33286 0.0913,0.25639 0.12849,-0.0794 0.16799,0.11156 0.12354,0.5972 -0.0359,0.39267 -0.0495,0.68593 -0.0301,0.65171 0.0194,-0.0343 0.17566,-0.22957 0.34729,-0.43412 0.23384,-0.2787 0.25918,-0.4046 0.10113,-0.50228 -0.14358,-0.0888 -0.16624,-0.058 -0.0711,0.096 0.0932,0.15092 0.0724,0.18466 -0.0627,0.10123 -0.30084,-0.18592 -0.0742,-0.42786 0.30732,-0.32809 0.21644,0.0566 0.39672,-0.0365 0.52125,-0.26919 0.11342,-0.21192 0.29416,-0.31588 0.44713,-0.25718 0.14121,0.0541 0.25676,0.0279 0.25676,-0.0582 0,-0.0863 0.2532,-0.12716 0.56269,-0.091 0.53649,0.0626 0.5887,0.0148 1.12173,-1.02907 0.30747,-0.60211 0.61,-1.35408 0.67227,-1.67103 l 0.11324,-0.57628 -0.78557,0.1178 c -1.05487,0.15818 -1.51144,-0.005 -1.51144,-0.53668 0,-0.50276 0.69769,-1.66412 1.21914,-2.02936 l 0.36892,-0.2584 -0.35731,-0.35729 c -0.52845,-0.52845 -1.14245,-0.61975 -1.99037,-0.29593 -0.8147,0.31115 -1.72829,1.12539 -1.30244,1.1608 0.13548,0.0113 0.30469,0.0113 0.376,0 0.25744,-0.0406 0.12268,0.6344 -0.17292,0.86621 -0.27258,0.21378 -0.27968,0.20804 -0.0716,-0.0577 0.31117,-0.39737 0.10408,-0.67655 -0.43003,-0.5797 -0.53171,0.0964 -0.95608,0.42527 -0.8242,0.63867 0.0533,0.0865 0.22763,0.0156 0.38719,-0.15744 0.15957,-0.17297 0.2173,-0.20761 0.12831,-0.077 -0.10799,0.15851 -0.0859,0.28444 0.0666,0.37865 0.17342,0.10719 0.13451,0.19141 -0.1617,0.34992 -0.25986,0.13908 -0.35059,0.14489 -0.27179,0.0175 0.0651,-0.10527 -0.004,-0.23808 -0.15206,-0.29515 -0.37363,-0.14337 -0.33842,-0.64325 0.0714,-1.01416 0.18797,-0.17011 0.29222,-0.39617 0.23167,-0.50233 -0.0606,-0.10619 -0.0502,-0.13911 0.0231,-0.0733 0.0733,0.0659 0.42645,-0.0652 0.78487,-0.2915 0.35842,-0.22627 0.92877,-0.52718 1.26745,-0.66868 1.02699,-0.42911 2.1879,-2.75458 1.916,-3.83796 -0.1205,-0.4801 -0.69257,-1.03334 -1.31062,-1.26747 -0.43325,-0.16413 -0.47159,-0.13931 -0.58312,0.37757 -0.29339,1.35966 -1.26225,2.54193 -2.08308,2.54193 -0.59111,0 -0.82272,-0.57128 -0.68989,-1.70149 l 0.1123,-0.95549 -0.37558,0.33416 c -0.5617,0.49971 -1.18761,1.96682 -1.18952,2.78816 -8.4e-4,0.39862 -0.0801,0.77318 -0.17584,0.83237 -0.31891,0.19711 -0.37363,-0.39382 -0.12639,-1.36461 0.24276,-0.95312 0.2413,-0.96274 -0.21253,-1.39753 -0.25133,-0.24078 -0.59275,-0.43778 -0.75871,-0.43778 -1.27535,0 -3.90928,3.32734 -3.91439,4.94488 -0.003,0.85935 0.48364,1.16411 1.71555,1.07501 0.77086,-0.0558 0.99524,-0.0238 0.8723,0.12437 -0.091,0.10969 -0.12843,0.23655 -0.0831,0.28191 0.0453,0.0453 -0.2866,0.0351 -0.73766,-0.0228 -2.00331,-0.257 -3.35897,0.74164 -4.26924,3.14491 -0.69062,1.8234 0.0869,4.28593 1.35328,4.28593 0.58729,0 1.60486,-0.56718 1.86146,-1.03755 0.0779,-0.14267 0.38074,-0.88193 0.67312,-1.64281 0.29241,-0.7609 0.69074,-1.57798 0.88517,-1.81576 0.27896,-0.34114 0.32573,-0.35938 0.22169,-0.0865 -0.61476,1.6128 -1.09199,3.14839 -1.03109,3.31769 0.0406,0.11275 -0.0192,0.24894 -0.13271,0.30264 -0.15752,0.0745 -0.15558,0.12141 0.009,0.19799 0.16126,0.0753 0.14536,0.16963 -0.0639,0.37898 -0.21135,0.21134 -0.25673,0.48988 -0.18791,1.15338 0.15625,1.50651 0.62896,2.12976 1.63835,2.16001 0.3388,0.01 0.36383,-0.0311 0.18886,-0.31126 z m -1.00553,-1.39473 c -0.14619,-0.27316 -0.11331,-0.35504 0.17987,-0.4481 0.19732,-0.0627 0.40479,-0.0679 0.46103,-0.0116 0.0563,0.0563 -0.0365,0.10227 -0.20614,0.10227 -0.22324,0 -0.28341,0.0955 -0.21794,0.34583 0.1147,0.43861 0.0145,0.44396 -0.21682,0.0116 z m 1.11125,-0.51976 c 0.0553,-0.0892 -0.0375,-0.24357 -0.20595,-0.34289 -0.24307,-0.14333 -0.19615,-0.16007 0.22745,-0.0812 0.36401,0.0679 0.62127,0.0118 0.80906,-0.17591 0.15143,-0.15143 0.45599,-0.2663 0.67678,-0.25528 0.3542,0.0178 0.36075,0.0301 0.0556,0.10507 -0.48257,0.11863 -0.79424,0.40071 -0.66815,0.60472 0.0654,0.10563 -0.0354,0.12691 -0.2613,0.0553 -0.21805,-0.0693 -0.36751,-0.0416 -0.36751,0.0679 0,0.10152 -0.0825,0.18459 -0.18313,0.18459 -0.10073,0 -0.138,-0.073 -0.0828,-0.1623 z m -0.94453,-0.53961 c 0,-0.10073 0.0779,-0.13504 0.17292,-0.0763 0.0951,0.0587 0.17294,0.14118 0.17294,0.18313 0,0.0419 -0.0779,0.0762 -0.17294,0.0762 -0.0951,0 -0.17292,-0.0824 -0.17292,-0.18312 z m -0.69171,-0.33566 c 0,-0.0951 0.0779,-0.17293 0.17293,-0.17293 0.0951,0 0.17291,0.0779 0.17291,0.17293 0,0.0951 -0.0779,0.17292 -0.17291,0.17292 -0.0951,0 -0.17293,-0.0779 -0.17293,-0.17292 z m 4.06382,-0.17293 c -0.19024,-0.0818 -0.25495,-0.15408 -0.14385,-0.16077 0.11112,-0.007 0.31214,-0.0544 0.44674,-0.10606 0.14584,-0.056 0.24471,0.014 0.24471,0.17292 0,0.29785 -0.0522,0.3068 -0.5476,0.0939 z m -3.70431,-0.61966 c 0.009,-0.20145 0.0492,-0.24243 0.10447,-0.10448 0.0499,0.12483 0.0438,0.27398 -0.0136,0.33145 -0.0574,0.0574 -0.0983,-0.0446 -0.0908,-0.22697 z m 7.07799,-1.54004 c -0.11754,-0.14163 -0.28269,-0.21485 -0.36704,-0.16272 -0.0844,0.0521 -0.15333,0.0171 -0.15333,-0.0777 0,-0.0948 0.15231,-0.16092 0.33843,-0.14688 0.18615,0.014 0.30356,0.0604 0.2609,0.10303 -0.0426,0.0427 0.01,0.18198 0.11506,0.30962 0.10594,0.12764 0.1537,0.23206 0.10615,0.23206 -0.0475,0 -0.18264,-0.11587 -0.30017,-0.25748 z M 237.2029,176.563 c -0.11494,-0.13851 -0.16211,-0.32768 -0.10482,-0.42038 0.0574,-0.0927 0.0251,-0.21744 -0.0716,-0.27717 -0.0967,-0.0597 -0.17328,-0.20131 -0.17025,-0.31458 0.004,-0.12399 0.0893,-0.0967 0.21616,0.0686 0.11587,0.15102 0.32739,0.24377 0.47006,0.20612 0.17418,-0.0459 0.15998,-0.006 -0.0432,0.12311 -0.16643,0.10536 -0.30261,0.27011 -0.30261,0.36611 0,0.096 0.0778,0.12643 0.17291,0.0677 0.0951,-0.0587 0.17294,0.0144 0.17294,0.16273 0,0.33515 -0.073,0.33897 -0.33957,0.0178 z m 1.723,-0.4399 c 0,-0.0951 0.17509,-0.17174 0.38908,-0.17028 0.31464,0.002 0.33946,0.0347 0.1297,0.17028 -0.33526,0.21665 -0.51878,0.21665 -0.51878,0 z m -5.45512,-1.63498 c -0.23344,-0.23343 -0.42445,-0.56805 -0.42445,-0.74358 0,-0.17553 -0.0834,-0.40262 -0.18554,-0.50468 -0.28292,-0.28292 -0.32661,-1.38234 -0.055,-1.38234 0.30229,0 0.46958,0.47413 0.24614,0.69757 -0.31992,0.31992 -0.18786,0.4641 0.13981,0.15266 0.17515,-0.16644 0.29453,-0.34925 0.2653,-0.40626 -0.0292,-0.057 0.14384,-0.20903 0.38456,-0.33787 0.5313,-0.28434 0.94457,-0.0814 1.18023,0.57989 0.26979,0.75684 -0.38231,2.3691 -0.95822,2.3691 -0.0926,0 -0.35944,-0.19103 -0.59288,-0.42449 z m 1.08179,-0.44169 c 0.26478,-0.52338 0.29147,-1.66506 0.0426,-1.81892 -0.23012,-0.14222 -0.96183,0.33242 -1.20079,0.77893 -0.13565,0.25348 -0.11571,0.5029 0.0771,0.96441 0.30172,0.72212 0.73857,0.75267 1.08115,0.0755 z m -1.50624,-1.74816 c 0,-0.0951 -0.0779,-0.12485 -0.17293,-0.066 -0.0951,0.0587 -0.17293,0.18469 -0.17293,0.27981 0,0.0951 0.0779,0.12483 0.17293,0.0659 0.0951,-0.0587 0.17293,-0.18469 0.17293,-0.27979 z m -0.93999,-0.0302 c 0.0649,-0.17055 0.16164,-0.26653 0.21488,-0.21328 0.0532,0.0532 1.2e-4,0.19277 -0.11807,0.31008 -0.1708,0.16952 -0.19065,0.14966 -0.0968,-0.0968 z m 1.23689,-0.76287 c 0.10801,-0.2815 0.13321,-0.27984 0.38671,0.0257 0.16912,0.20377 0.14474,0.24493 -0.13275,0.22403 -0.20136,-0.0152 -0.30489,-0.11694 -0.25396,-0.24962 z m 0.85107,-0.31048 c 0.0548,-0.14267 0.13012,-0.2594 0.16751,-0.2594 0.0374,0 0.0679,0.11673 0.0679,0.2594 0,0.14266 -0.0753,0.25938 -0.1675,0.25938 -0.0921,0 -0.12271,-0.11672 -0.068,-0.25938 z m -0.50367,11.71971 c 0.0465,-0.12099 0.21227,-0.21879 0.36854,-0.21733 0.24832,0.003 0.25144,0.026 0.0247,0.18924 -0.21573,0.1552 -0.20606,0.16929 0.0573,0.0839 0.17423,-0.0566 0.42713,-0.10279 0.56202,-0.10279 0.1349,0 0.24525,-0.0779 0.24525,-0.17292 0,-0.18956 -0.84814,-0.23477 -1.28182,-0.0684 -0.14989,0.0575 -0.24008,0.15711 -0.20042,0.22129 0.0397,0.0641 -0.13586,0.10765 -0.39008,0.0966 -0.27187,-0.0117 -0.48407,-0.13251 -0.51528,-0.29303 -0.0709,-0.3645 -0.53071,-0.53755 -0.47824,-0.17999 0.0912,0.6214 1.40104,0.98265 1.60793,0.44348 z m 58.83189,-0.0358 c 1.11696,-1.11697 0.81734,-4.60418 -0.60533,-7.04565 -0.23157,-0.39736 -0.42102,-0.82102 -0.42102,-0.94146 0,-0.37386 0.81651,0.86618 1.21209,1.84084 0.43803,1.07924 0.94362,1.30786 1.95645,0.88465 0.5409,-0.226 0.62428,-0.34722 0.73177,-1.06396 0.37099,-2.47396 -1.00345,-5.26501 -2.37792,-4.82876 -0.31586,0.10025 -0.34765,0.0625 -0.24689,-0.29372 0.82267,-2.90822 0.8645,-3.21529 0.55023,-4.03824 -0.4298,-1.12542 -1.46978,-2.36435 -2.39801,-2.85676 l -0.79679,-0.42271 -0.47204,0.35244 c -0.73287,0.54717 -1.09012,1.12369 -1.37696,2.2221 -0.25983,0.99502 -0.25692,1.02529 0.18002,1.86745 0.43802,0.84426 0.59759,1.32919 0.27119,0.82412 -0.1334,-0.20643 -0.17025,-0.17112 -0.18043,0.17293 -0.008,0.26875 -0.17044,-0.0258 -0.42946,-0.77818 -0.59434,-1.72657 -1.47482,-3.37143 -2.02064,-3.77487 -0.68586,-0.50692 -1.38439,-0.4353 -2.38203,0.24425 -2.35931,1.60707 -1.65724,4.1739 1.67517,6.12455 1.11345,0.65177 1.38754,1.02675 0.77786,1.06416 -0.2383,0.0146 -0.34843,-0.0259 -0.24476,-0.0899 0.10663,-0.0659 -0.39784,-0.50929 -1.16157,-1.02093 -1.08473,-0.72666 -1.49044,-0.90443 -2.06422,-0.90443 -0.57239,0 -0.71413,0.0618 -0.71413,0.31128 0,0.42619 -0.33584,0.7263 -0.81276,0.7263 -0.37288,0 -0.39773,0.0679 -0.39773,1.08771 0,1.80583 0.81501,4.26494 1.3718,4.13908 0.11566,-0.026 0.16273,0.0294 0.10464,0.1234 -0.0581,0.094 0.0463,0.3229 0.23212,0.50866 0.18576,0.18576 0.28588,0.39433 0.22247,0.46349 -0.0634,0.0692 0.0878,-0.005 0.3359,-0.16246 0.26143,-0.16697 0.58072,-0.23845 0.75919,-0.16995 0.29368,0.11268 0.29327,0.12898 -0.009,0.34977 -0.17419,0.12738 -0.39453,0.23159 -0.48964,0.23159 -0.0951,0 -0.0219,-0.11426 0.16275,-0.2539 0.36335,-0.27483 0.14853,-0.36003 -0.25845,-0.10249 -0.30943,0.19579 -0.0657,0.53344 0.7482,1.03643 0.44289,0.27372 0.6751,0.3096 1.21538,0.18774 0.36734,-0.0829 0.79311,-0.28404 0.94618,-0.4471 0.18621,-0.19837 0.19793,-0.25096 0.0354,-0.15893 -0.15884,0.0899 -0.20181,0.071 -0.12415,-0.0547 0.0654,-0.10564 0.23585,-0.14714 0.37902,-0.0922 0.63087,0.24209 1.08661,-0.80477 0.51941,-1.19316 -0.11345,-0.0778 -0.0736,-0.12806 0.10268,-0.12969 0.15851,-0.002 0.33289,-0.0999 0.38749,-0.2188 0.0546,-0.11888 0.053,-0.0217 -0.004,0.21616 -0.0997,0.41936 -0.0949,0.42194 0.16133,0.0865 0.2373,-0.3108 0.2364,-0.37657 -0.01,-0.6485 -0.16827,-0.18652 -0.19638,-0.30262 -0.0733,-0.30262 0.10985,0 0.19973,0.0779 0.19973,0.17292 0,0.0951 0.13619,0.17174 0.30263,0.1703 0.25618,-0.002 0.26315,-0.0276 0.0454,-0.16528 -0.20378,-0.12883 -0.17932,-0.15676 0.11768,-0.13439 0.20622,0.0155 0.33473,0.0933 0.28558,0.17286 -0.0491,0.0795 -0.004,0.24805 0.10143,0.37451 0.21116,0.25442 0.075,0.79251 -0.2007,0.79251 -0.0991,0 -0.0791,-0.11625 0.0458,-0.26672 0.18007,-0.21697 0.17929,-0.30568 -0.005,-0.47554 -0.12404,-0.11487 -0.17926,-0.12552 -0.12268,-0.0237 0.0566,0.10186 -0.0553,0.44536 -0.24875,0.76337 -0.19672,0.32347 -0.31748,0.7568 -0.27412,0.98362 0.0593,0.31008 0.0264,0.36311 -0.13935,0.22546 -0.16263,-0.13496 -0.26533,-0.0408 -0.4107,0.37609 -0.15005,0.43042 -0.14453,0.58737 0.0244,0.6946 0.16541,0.10501 0.15545,0.13946 -0.0412,0.14234 -0.14665,0.002 -0.0338,0.1531 0.25941,0.34735 0.53019,0.35114 0.4824,0.47739 -0.069,0.18228 -0.22415,-0.11997 -0.30568,-0.0995 -0.30568,0.0768 0,0.13223 0.0454,0.2253 0.10088,0.20682 0.0554,-0.0185 0.12587,0.0442 0.15643,0.13929 0.15547,0.48396 0.85715,0.99271 2.27898,1.6524 0.23777,0.11031 0.5855,0.28129 0.77273,0.37995 0.99706,0.52542 1.72355,0.57276 2.15583,0.14049 z m -2.485,-0.72114 c 0.0453,-0.0734 -0.0553,-0.21372 -0.22377,-0.31178 -0.16844,-0.0981 -0.22104,-0.18067 -0.1169,-0.18356 0.10414,-0.003 0.31847,0.13741 0.47627,0.31179 0.23735,0.26225 0.24329,0.31702 0.0344,0.31702 -0.13889,0 -0.21538,-0.0601 -0.17002,-0.13347 z m -1.5642,-0.80322 c 0.11012,-0.40283 -0.16989,-0.55547 -0.31722,-0.17293 -0.0458,0.11889 -0.0746,0.041 -0.064,-0.17293 0.0221,-0.45001 0.16302,-0.4928 0.45683,-0.13875 0.15573,0.18763 0.15897,0.32842 0.013,0.56202 -0.17244,0.27584 -0.18263,0.26694 -0.0885,-0.0774 z m 0.624,-0.0259 c -0.13046,-0.0826 -0.20188,-0.25635 -0.15866,-0.38598 0.0547,-0.16416 0.14169,-0.11775 0.28655,0.15292 0.22994,0.42965 0.2177,0.45197 -0.12789,0.23306 z m 0.057,-0.89379 c -0.0628,-0.10159 -0.20471,-0.14997 -0.3154,-0.10749 -0.14087,0.054 -0.17583,-0.13691 -0.11651,-0.63669 0.0813,-0.68429 0.0871,-0.69046 0.14346,-0.14862 0.0324,0.31091 0.12266,0.52579 0.2008,0.47749 0.0781,-0.0484 0.18254,0.0671 0.23201,0.25612 0.0986,0.37689 0.0341,0.44796 -0.14436,0.15919 z m -4.7188,-1.84719 c -0.0857,-0.16645 -0.1146,-0.41935 -0.0645,-0.56202 0.0785,-0.22319 0.0508,-0.22602 -0.19843,-0.0203 -0.23671,0.1954 -0.25029,0.29022 -0.0743,0.51879 0.13273,0.17241 0.0645,0.15084 -0.17799,-0.0564 l -0.39328,-0.33593 0.3941,-0.21092 c 0.4303,-0.23028 0.71782,-0.15235 0.60387,0.16368 -0.0398,0.11017 -0.002,0.33648 0.0833,0.50294 0.0857,0.16645 0.11675,0.30262 0.0692,0.30262 -0.0476,0 -0.1565,-0.13617 -0.24211,-0.30262 z m 4.37897,0.12767 c -0.12328,-0.19949 0.5614,-1.12959 0.95237,-1.29372 0.14265,-0.0598 -0.002,0.16151 -0.32207,0.49202 -0.3198,0.33049 -0.52921,0.68546 -0.46535,0.78879 0.0639,0.10333 0.0772,0.18786 0.0298,0.18786 -0.0476,0 -0.13513,-0.0787 -0.19459,-0.17495 z m -0.83457,-0.28619 c -0.0634,-0.0633 -0.11529,-0.1957 -0.11529,-0.29397 0,-0.10837 0.0805,-0.0982 0.20464,0.0259 0.11253,0.11255 0.16443,0.24483 0.11528,0.29398 -0.0491,0.0491 -0.14121,0.0374 -0.20463,-0.026 z m -2.88213,-0.4035 c 0.18728,-0.34997 0.37598,-0.431 0.5645,-0.24249 0.1952,0.19521 -0.0828,0.58834 -0.41616,0.58834 -0.27986,0 -0.3037,-0.0555 -0.14834,-0.34585 z m 1.23032,-0.30879 c -0.13199,-0.24664 -0.0984,-0.3088 0.16685,-0.3088 0.18266,0 0.3321,0.0657 0.3321,0.14607 0,0.0804 0.0898,0.0906 0.19967,0.0227 0.12089,-0.0746 0.1528,-0.0477 0.0808,0.0686 -0.0653,0.10565 -0.24572,0.14336 -0.40094,0.0838 -0.18866,-0.0725 -0.24077,-0.0411 -0.15719,0.094 0.0686,0.11126 0.0843,0.20231 0.0344,0.20231 -0.0498,0 -0.16495,-0.13895 -0.25585,-0.30879 z m -3.38082,-0.60655 c 0.0649,-0.17054 0.16165,-0.26652 0.21488,-0.21326 0.0532,0.0532 1.1e-4,0.19278 -0.11807,0.31008 -0.1708,0.16951 -0.19065,0.14964 -0.0968,-0.0968 z m -0.34585,-0.17291 c 0.065,-0.17057 0.16163,-0.26653 0.21487,-0.21329 0.0532,0.0533 1.2e-4,0.19278 -0.11807,0.31008 -0.17079,0.16952 -0.19064,0.14966 -0.0968,-0.0968 z m 8.11652,0.0507 c 0.0587,-0.0951 0.1801,-0.17293 0.2696,-0.17293 0.0895,0 0.16272,0.0779 0.16272,0.17293 0,0.0951 -0.12131,0.17291 -0.26959,0.17291 -0.14829,0 -0.22151,-0.0779 -0.16273,-0.17291 z m -0.34586,-0.5188 c 0.0587,-0.0951 0.14119,-0.17291 0.18314,-0.17291 0.0419,0 0.0762,0.0779 0.0762,0.17291 0,0.0951 -0.0824,0.17293 -0.18313,0.17293 -0.10073,0 -0.13505,-0.0779 -0.0763,-0.17293 z m -3.35846,-0.23733 c -0.0113,-0.26789 -0.0585,-0.28663 -0.27303,-0.10852 -0.17921,0.14874 -0.2594,0.15528 -0.2594,0.0212 0,-0.10677 0.0779,-0.1941 0.17293,-0.1941 0.0951,0 0.17786,-0.13619 0.18389,-0.30262 0.008,-0.2181 0.0576,-0.18602 0.17786,0.11488 0.0918,0.22961 0.13192,0.50198 0.0891,0.60525 -0.0428,0.10326 -0.0839,0.0419 -0.0914,-0.13607 z m -4.10628,-0.18738 c 0,-0.13848 0.0661,-0.21092 0.14692,-0.16098 0.0807,0.0499 0.10216,0.16324 0.0473,0.25179 -0.13982,0.22626 -0.19436,0.20079 -0.19436,-0.0908 z m 7.28387,-0.51851 c 0.005,-0.22632 0.0505,-0.45396 0.10236,-0.50586 0.0518,-0.0519 0.0908,0.0908 0.0865,0.31717 -0.005,0.22632 -0.0505,0.45396 -0.10235,0.50586 -0.052,0.0519 -0.0908,-0.0908 -0.0865,-0.31717 z m -3.68272,-0.0944 c 0,-0.23777 0.0392,-0.33503 0.0872,-0.21614 0.0479,0.11887 0.0479,0.31343 0,0.43231 -0.0479,0.11888 -0.0872,0.0217 -0.0872,-0.21617 z m 0.50513,-0.44673 c 0.009,-0.20144 0.0493,-0.24243 0.10449,-0.10448 0.0499,0.12484 0.0438,0.27399 -0.0136,0.33146 -0.0575,0.0574 -0.0983,-0.0446 -0.0908,-0.22698 z m 2.14796,-0.24497 c -0.0587,-0.0951 -0.25332,-0.17294 -0.43232,-0.17294 -0.17899,0 -0.38171,-0.091 -0.45049,-0.20231 -0.0833,-0.13476 -0.0319,-0.16657 0.15393,-0.0953 0.19551,0.0751 0.25031,0.0323 0.18317,-0.14255 -0.0526,-0.13728 -0.14684,-0.21802 -0.20926,-0.17944 -0.0624,0.0386 -0.26827,-0.0477 -0.45744,-0.19182 -0.33739,-0.25696 -0.33668,-0.25978 0.0381,-0.14818 0.36659,0.10918 0.37796,0.0791 0.28073,-0.74179 -0.072,-0.60852 -0.021,-1.01676 0.17719,-1.41385 0.15318,-0.30705 0.23626,-0.62666 0.18462,-0.71021 -0.0516,-0.0836 0.062,-0.15192 0.25273,-0.15192 0.20536,0 0.44328,0.19379 0.58377,0.47555 0.13042,0.26155 0.32921,0.45609 0.44175,0.43232 0.11255,-0.0238 0.18517,0.054 0.1614,0.17293 -0.0239,0.11888 0.0449,0.19976 0.15258,0.1797 0.10769,-0.0201 0.19271,0.0578 0.18892,0.17294 -0.0178,0.53704 0.0609,0.82678 0.20089,0.74029 0.0844,-0.0521 0.007,0.1932 -0.17294,0.54514 -0.17942,0.35195 -0.32623,0.75104 -0.32623,0.88688 0,0.23584 -0.47287,0.70037 -0.72473,0.71195 -0.0658,0.004 -0.16759,-0.0724 -0.22638,-0.16742 z m 0.73241,-0.87829 c 0.36388,-0.71322 0.26364,-1.35145 -0.30091,-1.91601 -0.59883,-0.59882 -0.87973,-0.57566 -1.05699,0.0871 -0.14151,0.52913 0.046,1.33281 0.4576,1.96094 0.32297,0.49292 0.60232,0.45193 0.9003,-0.13207 z m -3.62805,0.27303 c -0.0454,-0.23778 -0.0156,-0.43232 0.0663,-0.43232 0.0819,0 0.14895,0.19454 0.14895,0.43232 0,0.23778 -0.0299,0.43232 -0.0663,0.43232 -0.0365,0 -0.10348,-0.19454 -0.14893,-0.43232 z m 1.17747,0.0358 c 0.0649,-0.17055 0.16164,-0.26652 0.21489,-0.21328 0.0532,0.0532 10e-5,0.19277 -0.11808,0.31009 -0.17078,0.1695 -0.19065,0.14963 -0.0968,-0.0968 z m -0.44342,-0.36314 c 0,-0.0374 0.12076,-0.11431 0.26837,-0.17095 0.15389,-0.0592 0.2233,-0.0301 0.16271,0.0679 -0.10156,0.16433 -0.43108,0.24305 -0.43108,0.10299 z m 3.54503,-1.66132 c 0.0587,-0.0951 0.14118,-0.17293 0.18313,-0.17293 0.0419,0 0.0762,0.0779 0.0762,0.17293 0,0.0951 -0.0824,0.17294 -0.18313,0.17294 -0.10073,0 -0.13504,-0.0779 -0.0762,-0.17294 z m -0.89874,-1.52033 c -0.13656,-0.0868 -0.15218,-0.21838 -0.0459,-0.38644 0.13711,-0.21683 0.16154,-0.21187 0.16379,0.0334 0.002,0.15851 0.0999,0.32746 0.21882,0.37544 0.11889,0.0479 0.13834,0.0922 0.0432,0.0982 -0.0951,0.007 -0.26609,-0.0482 -0.37996,-0.12061 z m -56.51986,12.00403 c 0.1269,0.0487 0.28999,-0.014 0.36242,-0.13941 0.0725,-0.12537 0.0705,-0.1727 -0.005,-0.10515 -0.0748,0.0675 -0.35127,0.0114 -0.61423,-0.12444 -0.47326,-0.24474 -0.47611,-0.24297 -0.28071,0.17417 0.10859,0.23177 0.22191,0.35051 0.25183,0.26385 0.03,-0.0866 0.15823,-0.11773 0.28513,-0.069 z m 11.74774,-5.91512 c 0.49499,-1.18194 0.66257,-2.47675 0.3927,-3.03409 -0.10715,-0.2213 0.049,-0.18966 0.73202,0.1484 1.41429,0.69992 4.16733,0.57656 4.16733,-0.1867 0,-0.66684 -2.60689,-2.00199 -3.49639,-1.79072 -0.21698,0.0514 -0.58905,0.14548 -0.82684,0.20873 -0.23776,0.0633 0.0503,-0.16627 0.64009,-0.51009 1.33994,-0.78111 1.78092,-1.32293 1.78092,-2.18819 0,-0.83964 -0.49353,-1.18996 -1.10862,-0.78695 -0.51049,0.33449 -1.44019,1.26629 -1.77831,1.78232 -0.43633,0.66594 -0.68362,0.4806 -0.99089,-0.74271 -0.44815,-1.78407 -1.06755,-2.82935 -1.6766,-2.82935 -0.81877,0 -0.76841,1.55778 0.10614,3.28363 0.23834,0.47034 0.43336,0.92545 0.43336,1.01136 0,0.0859 -0.33386,0.1938 -0.7419,0.2398 -1.17051,0.13193 -2.01434,0.6243 -2.56913,1.49911 -0.27361,0.43146 -0.47312,0.85764 -0.44332,0.94706 0.21077,0.63229 2.31578,0.19917 4.29538,-0.88382 0.0598,-0.0326 0.003,0.39132 -0.12699,0.94228 -0.44079,1.8733 -0.14579,4.37021 0.49137,4.1589 0.12023,-0.0399 0.44409,-0.61092 0.71968,-1.26897 z m 34.752,-2.13375 c -0.0215,-1.40356 -0.0878,-1.72274 -0.55376,-2.66285 -0.6519,-1.31523 -0.53116,-1.50473 0.70873,-1.11218 0.49883,0.15792 1.02369,0.31902 1.16635,0.35798 0.30213,0.0825 0.86465,-0.17178 0.86465,-0.39092 0,-0.25039 -1.21745,-1.63232 -1.72396,-1.95686 -0.43568,-0.27916 -0.53438,-0.28252 -1.21781,-0.0414 -0.40902,0.14432 -0.78488,0.22121 -0.8352,0.17088 -0.0504,-0.0504 -0.10383,-0.80989 -0.11884,-1.6879 -0.0499,-2.91294 -0.57689,-3.7651 -1.41423,-2.28663 -0.49093,0.86685 -0.50727,1.98596 -0.0439,3.0073 0.18982,0.41838 0.30939,0.79643 0.26572,0.84009 -0.0436,0.0436 -0.56625,-0.21636 -1.16132,-0.57783 -1.14962,-0.69838 -1.82151,-0.79931 -2.7528,-0.41355 -0.5067,0.20988 -0.63443,0.56744 -0.35827,1.00303 0.15689,0.24746 2.78341,1.06795 3.41868,1.06795 0.71044,0 0.59176,0.30704 -0.45763,1.18387 -1.29662,1.08345 -1.80848,1.68714 -2.2437,2.64622 -0.40189,0.88571 -0.44771,1.5307 -0.10868,1.5307 0.36242,0 2.14594,-1.37554 3.20468,-2.47161 0.51566,-0.53386 0.99105,-0.9376 1.05642,-0.89721 0.0654,0.0405 0.17096,0.51694 0.23466,1.05899 0.13895,1.18222 0.61205,2.31294 1.22361,2.92451 0.72536,0.72536 0.87393,0.49854 0.84658,-1.29259 z m 0.79632,-3.15097 c 0.009,-0.15288 -1.39867,-0.70345 -1.51095,-0.59117 -0.0498,0.0498 0.0949,0.44006 0.32144,0.8672 l 0.412,0.77665 0.38565,-0.4709 c 0.21209,-0.25897 0.38844,-0.52079 0.39186,-0.58178 z m -30.37738,-2.32489 c 0.30439,-0.1508 0.73705,-0.48153 0.96149,-0.73494 0.22444,-0.25341 0.3486,-0.35146 0.27591,-0.21788 -0.0881,0.16175 -0.065,0.2014 0.0686,0.11873 0.11049,-0.0683 0.32213,-0.3586 0.4703,-0.64515 0.2449,-0.47354 0.24413,-0.55961 -0.009,-0.94502 -0.15281,-0.23321 -0.2311,-0.49965 -0.17397,-0.59208 0.0571,-0.0924 0.028,-0.16804 -0.0648,-0.16804 -0.0929,0 -0.2134,0.0973 -0.26801,0.21617 -0.0546,0.11889 -0.054,0.0354 0.002,-0.18532 0.0648,-0.25923 -0.0116,-0.52532 -0.21582,-0.75097 -0.3397,-0.37536 -1.03275,-0.80398 -0.86741,-0.53645 0.0549,0.0888 -0.0137,0.16135 -0.15206,0.16135 -0.13848,0 -0.21356,-0.0382 -0.16682,-0.0849 0.0468,-0.0468 -0.002,-0.1894 -0.10764,-0.31703 -0.14151,-0.17053 -0.14151,-0.29363 0,-0.46414 0.10594,-0.12765 0.13492,-0.29351 0.0645,-0.36856 -0.0706,-0.0752 0.0418,-0.0328 0.24971,0.0937 0.20784,0.12663 0.33825,0.29441 0.28978,0.37284 -0.0486,0.0783 -0.024,0.13226 0.0544,0.11961 0.27628,-0.0445 0.91582,0.2283 0.83639,0.35683 -0.0443,0.0716 0.0767,0.27238 0.26878,0.4462 0.25367,0.22955 0.33127,0.24772 0.28366,0.0663 -0.0361,-0.13733 -0.0329,-0.19133 0.007,-0.11999 0.14191,0.25375 0.60136,0.13456 0.49995,-0.12971 -0.14272,-0.37192 0.0178,-0.32024 0.22857,0.0736 0.12138,0.22677 0.12204,0.46119 0.002,0.73494 -0.16412,0.37464 -0.16958,0.36901 -0.0801,-0.0826 0.0879,-0.44362 0.0663,-0.46871 -0.25543,-0.29654 -0.19328,0.10345 -0.35143,0.22884 -0.35143,0.27866 0,0.0499 0.091,0.0344 0.20231,-0.0344 0.13585,-0.084 0.16622,-0.031 0.0924,0.16136 -0.0773,0.20157 0.0366,0.3621 0.38443,0.54201 0.55782,0.28846 2.13809,0.48734 1.99183,0.25066 -0.0523,-0.0845 0.0197,-0.10972 0.15984,-0.0559 0.38829,0.14901 1.01888,-0.25315 0.89658,-0.5718 -0.0868,-0.22637 -0.0602,-0.23438 0.16316,-0.049 0.22771,0.18897 0.44042,0.0436 1.44678,-0.98906 1.31936,-1.35382 2.02152,-2.58167 1.82965,-3.19948 -0.29666,-0.95521 -0.72926,-1.29638 -2.11947,-1.6715 l -1.35508,-0.36564 -1.08689,0.44163 c -0.59778,0.24291 -1.21333,0.41729 -1.36788,0.38753 -0.15456,-0.0298 0.44721,-0.35596 1.33723,-0.72488 1.8812,-0.77975 2.70276,-1.42897 2.98022,-2.35513 0.17061,-0.5694 0.15104,-0.75467 -0.13871,-1.313 -0.48469,-0.93399 -1.31159,-1.30391 -3.14877,-1.40867 -1.21923,-0.0695 -1.64207,-0.0267 -2.15879,0.21848 -0.79848,0.37891 -1.67298,1.4303 -2.46968,2.96918 -0.48301,0.93301 -0.58956,1.05824 -0.5088,0.598 0.0988,-0.56265 0.98958,-2.15296 1.61859,-2.88952 0.16861,-0.19742 0.51905,-0.49818 0.7788,-0.66837 0.58404,-0.38269 0.5846,-0.45545 0.009,-1.14001 -0.42671,-0.50712 -0.52945,-0.54473 -1.28858,-0.47178 -1.46198,0.14048 -4.06225,1.99249 -4.66712,3.32413 -0.32401,0.71329 -0.45223,2.91887 -0.1925,3.31143 0.0699,0.10562 0.3994,0.33216 0.73229,0.50343 0.3329,0.17127 0.51326,0.3425 0.40082,0.38048 -0.11244,0.0379 -0.44183,-0.0537 -0.73197,-0.2037 -1.2245,-0.63321 -2.69093,-0.51219 -3.71278,0.30642 -0.43078,0.34509 -0.47199,0.44993 -0.30182,0.76789 0.14077,0.26304 0.14505,0.48218 0.015,0.7672 -0.18023,0.39484 -1.20789,1.17715 -1.54635,1.17715 -0.34217,0 -0.16908,0.30992 0.22887,0.40981 0.49918,0.12528 1.26781,0.71644 1.50305,1.15599 0.13564,0.25345 0.0995,0.40476 -0.15817,0.66244 -0.29922,0.29922 -0.30773,0.37146 -0.0818,0.69401 0.23799,0.33981 0.27622,0.34427 0.68027,0.0795 0.29634,-0.19418 0.39654,-0.37996 0.32556,-0.60358 -0.0565,-0.17774 -0.0196,-0.32308 0.082,-0.32308 0.10151,0 0.1943,0.11672 0.20619,0.25939 0.05,0.59892 0.0738,0.66589 0.2597,0.72785 0.10718,0.0357 0.24092,-0.0551 0.29721,-0.20176 0.0564,-0.14667 0.0271,-0.2667 -0.0653,-0.2667 -0.0921,0 -0.16751,-0.0692 -0.16751,-0.15372 0,-0.0845 0.13473,-0.1429 0.29938,-0.12969 0.19762,0.0158 0.30725,-0.1101 0.32252,-0.37054 0.0252,-0.42988 0.24275,-0.765 0.24275,-0.37397 0,0.14323 0.1088,0.0849 0.26941,-0.1444 0.14818,-0.21155 0.21353,-0.48178 0.14521,-0.60049 -0.0683,-0.11873 -0.0646,-0.16219 0.009,-0.0966 0.0729,0.0656 0.2216,0.0446 0.33035,-0.0464 0.43796,-0.36702 1.7648,-1.19084 1.9227,-1.19378 0.0927,-0.002 -0.4131,0.59113 -1.12405,1.31749 -0.71094,0.72634 -1.1759,1.25833 -1.03324,1.18221 0.14268,-0.0761 0.0485,0.0622 -0.20915,0.30744 -0.68554,0.65234 -0.75246,1.16605 -0.28467,2.18573 0.37307,0.81323 0.45368,0.88226 1.1522,0.98702 0.51273,0.0769 0.81553,0.0428 0.95422,-0.10734 0.16013,-0.17338 0.13716,-0.19668 -0.10845,-0.11003 -0.18524,0.0654 -0.26876,0.0405 -0.20595,-0.0611 0.058,-0.094 0.005,-0.17213 -0.12071,-0.17359 -0.16978,-0.002 -0.16385,-0.0423 0.0238,-0.16086 0.13892,-0.0879 0.37061,-0.0937 0.52124,-0.0131 0.34723,0.18582 0.81749,-0.15943 0.73854,-0.54222 -0.0325,-0.15758 0.0351,-0.34469 0.15012,-0.41581 0.13305,-0.0822 0.16428,-0.0566 0.0858,0.0703 -0.19965,0.32305 0.0857,0.64466 0.31534,0.35556 0.10591,-0.13331 0.36975,-0.39362 0.5863,-0.57853 0.33496,-0.28602 0.37693,-0.29246 0.28129,-0.0432 -0.0618,0.16109 -0.17946,0.29291 -0.26141,0.29291 -0.0819,0 -0.12528,0.0973 -0.0963,0.21617 0.0291,0.11888 0.0198,0.15731 -0.0202,0.0854 -0.0401,-0.072 -0.14777,-0.0845 -0.2393,-0.028 -0.0916,0.0566 0.0318,0.30113 0.27416,0.54345 0.24231,0.24232 0.44058,0.49591 0.44058,0.56351 0,0.0972 0.57975,0.4534 0.83,0.50991 0.0285,0.007 0.30086,-0.11167 0.60525,-0.26246 z m -3.59687,-1.10924 c 0.0587,-0.0951 0.18471,-0.17293 0.27981,-0.17293 0.0951,0 0.12484,0.0779 0.066,0.17293 -0.0587,0.0951 -0.18469,0.17294 -0.27979,0.17294 -0.0951,0 -0.12485,-0.0779 -0.066,-0.17294 z m 4.12147,-0.0587 c 0,-0.11715 0.14267,-0.21299 0.31704,-0.21299 0.17437,0 0.31703,0.0195 0.31703,0.0433 0,0.0239 -0.14266,0.11968 -0.31703,0.21301 -0.22767,0.12184 -0.31704,0.10962 -0.31704,-0.0433 z m 0.65533,-0.61089 c -0.40565,-0.31194 -0.40631,-0.31735 -0.0496,-0.41063 0.22171,-0.0579 0.44752,0.0155 0.58399,0.19025 0.19864,0.25421 0.19004,0.2593 -0.0801,0.0473 -0.33973,-0.26645 -0.4167,-0.0325 -0.0951,0.28922 0.30855,0.30853 0.10946,0.24408 -0.35917,-0.11628 z m -1.66407,-1.4055 c -0.0587,-0.0951 -0.0245,-0.17293 0.0762,-0.17293 0.10072,0 0.18314,0.0779 0.18314,0.17293 0,0.0951 -0.0343,0.17293 -0.0762,0.17293 -0.0419,0 -0.12436,-0.0779 -0.18313,-0.17293 z m 0.46403,-0.2104 c -0.11257,-0.11254 -0.20464,-0.27245 -0.20464,-0.35533 0,-0.0829 0.12599,-0.0246 0.27997,0.12929 0.15399,0.15398 0.24608,0.31389 0.20465,0.35532 -0.0415,0.0414 -0.16744,-0.0167 -0.27998,-0.12928 z m -6.51829,-0.13829 c -0.0597,-0.0967 -0.17634,-0.13388 -0.25912,-0.0826 -0.0827,0.0513 -0.13907,-0.059 -0.12509,-0.2446 0.0292,-0.38657 0.21641,-0.32114 0.47759,0.16685 0.18354,0.34298 0.10397,0.47977 -0.0934,0.16047 z m 11.15564,-0.42949 c 0,-0.14267 0.0648,-0.25938 0.14411,-0.25938 0.0792,0 0.14411,0.11671 0.14411,0.25938 0,0.14267 -0.0648,0.2594 -0.14411,0.2594 -0.0792,0 -0.14411,-0.11673 -0.14411,-0.2594 z m -11.20262,-0.28611 c 0.0365,-0.1098 0.25708,-0.27005 0.48996,-0.35608 l 0.42342,-0.15643 -0.38186,0.35607 c -0.42587,0.39713 -0.63198,0.45779 -0.53152,0.15644 z m 7.78046,-0.90694 c 0.12264,-0.13308 0.25023,-0.21608 0.28353,-0.18444 0.10259,0.0974 -0.15738,0.42639 -0.33697,0.42639 -0.0932,0 -0.0693,-0.10888 0.0534,-0.24195 z m -0.96358,-0.70916 c 0.0548,-0.14267 0.13011,-0.2594 0.1675,-0.2594 0.0374,0 0.0679,0.11673 0.0679,0.2594 0,0.14265 -0.0753,0.25938 -0.1675,0.25938 -0.0921,0 -0.1227,-0.11673 -0.0679,-0.25938 z m 0.64042,-0.73564 c 0.0317,-0.30948 0.10913,-0.61426 0.17215,-0.67729 0.18154,-0.18154 0.12786,0.69283 -0.0602,0.98061 -0.12514,0.19149 -0.15445,0.11212 -0.11196,-0.30332 z m -3.11487,-0.007 c -0.45401,-0.28295 -0.44075,-1.00217 0.0287,-1.56017 0.81893,-0.97323 2.22816,-1.0473 2.37825,-0.12501 0.0813,0.49943 -0.19358,1.25753 -0.49831,1.37446 -0.14206,0.0545 -0.22259,0.15802 -0.17897,0.23002 0.10382,0.17138 -1.46665,0.24466 -1.72973,0.0806 z m 1.60447,-0.64438 c 0.6501,-0.65009 0.27497,-1.59721 -0.53738,-1.35673 -0.80253,0.2376 -1.42056,1.26483 -1.00875,1.67665 0.27148,0.27148 1.13301,0.0932 1.54613,-0.31992 z m 2.07736,-0.42943 c 0.0681,-0.23777 0.10826,-0.68522 0.0892,-0.99433 -0.019,-0.30913 0.0467,-0.56203 0.14591,-0.56203 0.21874,0 0.084,1.2865 -0.17825,1.7022 -0.14198,0.22503 -0.15419,0.19376 -0.0569,-0.14584 z m -1.73898,-1.50566 c -0.0939,-0.24646 -0.0739,-0.26632 0.0968,-0.0968 0.11819,0.11731 0.17132,0.25684 0.11807,0.31008 -0.0532,0.0533 -0.14993,-0.0427 -0.21487,-0.21327 z m 2.51001,-0.32449 c 0.009,-0.20145 0.0492,-0.24244 0.10447,-0.10449 0.0499,0.12483 0.0438,0.27399 -0.0137,0.33146 -0.0574,0.0574 -0.0983,-0.0448 -0.0908,-0.22697 z m -0.87829,-0.23935 c 0,-0.0921 -0.13618,-0.11648 -0.30261,-0.054 -0.26502,0.0993 -0.27314,0.0772 -0.0654,-0.17837 0.14041,-0.17261 0.16223,-0.29177 0.0534,-0.29177 -0.10114,0 -0.232,0.0779 -0.29078,0.17294 -0.0587,0.0951 -0.19956,0.1712 -0.31282,0.16908 -0.19391,-0.005 0.54833,-0.67579 0.75532,-0.68403 0.0531,-0.002 0.24771,0.11308 0.43232,0.25598 0.31269,0.24201 0.31358,0.25207 0.0131,0.14677 -0.2685,-0.0941 -0.30278,-0.0507 -0.2045,0.25896 0.0649,0.20462 0.0739,0.37202 0.0198,0.37202 -0.0539,0 -0.0981,-0.0753 -0.0981,-0.1675 z m 0.89195,-0.52422 c 0,-0.23776 0.0392,-0.33504 0.0872,-0.21615 0.0479,0.11887 0.0479,0.31343 0,0.43232 -0.0479,0.11888 -0.0872,0.0217 -0.0872,-0.21617 z m 27.04286,9.14043 c 0.93821,-0.86479 1.79925,-2.57931 1.92959,-3.84219 0.0738,-0.71399 0.0152,-1.0613 -0.27396,-1.62823 -1.17175,-2.29682 -3.72748,-3.52908 -5.65178,-2.72505 -0.33887,0.14159 -0.55562,0.17155 -0.49159,0.0679 0.0745,-0.12057 -0.01,-0.14596 -0.24014,-0.0727 -0.24302,0.0771 -0.41153,0.015 -0.5352,-0.19762 -0.0993,-0.17063 -0.18287,-0.21294 -0.18576,-0.0941 -0.003,0.1189 -0.0997,0.21616 -0.21524,0.21616 -0.13261,0 -0.10277,-0.10722 0.0809,-0.29096 0.23666,-0.23667 0.6136,-0.28759 2.01961,-0.27282 l 1.72863,0.0181 0.54318,-0.61866 c 0.66594,-0.75845 0.62211,-1.38048 -0.17934,-2.54536 -1.42507,-2.07126 -3.55528,-3.89921 -4.54398,-3.89921 -0.6209,0 -1.2308,0.63575 -1.5728,1.63942 -0.24141,0.7085 -0.23178,0.81624 0.17222,1.92926 0.45344,1.24922 0.70564,1.66761 0.92391,1.53271 0.21042,-0.13005 0.56298,0.39387 0.42033,0.62466 -0.0948,0.15347 0.0476,0.18221 0.54712,0.1104 l 0.67536,-0.0971 -0.56991,0.24676 c -0.31346,0.13571 -0.52286,0.32291 -0.46534,0.41597 0.0575,0.093 0.0267,0.16921 -0.0684,0.16921 -0.0951,0 -0.22101,-0.078 -0.27979,-0.17294 -0.0587,-0.0951 -0.0151,-0.17293 0.0974,-0.17293 0.14958,0 0.14489,-0.0716 -0.0175,-0.26726 -0.12201,-0.14699 -0.34317,-0.2207 -0.49147,-0.16379 -0.1483,0.0569 -0.21621,0.0499 -0.15089,-0.0153 0.0654,-0.0653 -0.0294,-0.30711 -0.21044,-0.53727 -0.18106,-0.23019 -0.49411,-0.91411 -0.69569,-1.51982 -0.44396,-1.33408 -1.44063,-2.53084 -2.4411,-2.93115 -0.74066,-0.29635 -1.06161,-0.24569 -0.70467,0.11126 0.11256,0.11254 0.20463,0.36835 0.20463,0.56844 0,0.64075 -1.71831,1.98555 -2.5421,1.98952 -0.23629,0.002 -0.15311,0.15134 0.34552,0.62392 0.3612,0.34234 0.77348,0.80061 0.91617,1.01839 0.14407,0.21987 0.51153,0.44325 0.82635,0.50231 0.31179,0.0585 0.7166,0.22787 0.89958,0.37638 0.31963,0.25945 0.31572,0.26608 -0.0996,0.16938 -0.23778,-0.0553 -0.60742,-0.14738 -0.82141,-0.2045 -0.33812,-0.0903 -0.38909,-0.038 -0.38909,0.39908 0,0.66527 -0.28362,0.9181 -1.02892,0.91733 -0.68327,-6.6e-4 -1.63013,-0.50737 -2.12575,-1.13744 l -0.32513,-0.41335 -0.85092,0.4312 c -1.27058,0.64385 -1.46408,1.03348 -1.20229,2.42097 0.25379,1.34506 1.14233,3.26528 1.82254,3.93875 0.50703,0.50201 1.42285,0.60966 1.32997,0.15633 -0.0252,-0.12341 0.0525,-0.2068 0.17292,-0.1853 0.36664,0.0655 1.50594,-0.58361 1.61221,-0.9185 0.055,-0.17306 0.15996,-0.31466 0.23341,-0.31466 0.2099,0 0.55215,-0.86974 0.4239,-1.07725 -0.0709,-0.11474 -0.0339,-0.13635 0.096,-0.056 0.13342,0.0824 0.43877,-0.13505 0.82811,-0.58991 0.4278,-0.49977 0.67196,-0.66531 0.79697,-0.54032 0.12501,0.12501 0.0913,0.27849 -0.11005,0.50097 -0.15965,0.17641 -0.24602,0.36499 -0.19193,0.41909 0.0541,0.0541 0.004,0.15707 -0.1128,0.22884 -0.14392,0.089 -0.17034,0.0532 -0.083,-0.11237 0.0706,-0.13359 -0.0325,-0.0485 -0.22882,0.18943 -0.19637,0.23778 -0.35875,0.52573 -0.36087,0.63991 -0.002,0.11415 -0.12546,0.27561 -0.27409,0.3588 -0.14865,0.0832 -0.28822,0.27373 -0.31021,0.42346 -0.022,0.14973 -0.13334,0.38477 -0.24752,0.52232 -0.28722,0.3461 -0.44525,1.24061 -0.31256,1.76928 0.3226,1.28535 3.7535,3.03612 4.49557,2.29404 0.143,-0.14299 0.22156,-0.29842 0.17459,-0.3454 -0.15788,-0.15788 1.31302,-0.64748 1.94524,-0.64748 0.39185,0 0.93909,0.19274 1.46369,0.51552 l 0.83782,0.51552 -0.27898,-0.69724 c -0.45208,-1.12987 6.5e-4,-3.07829 0.8371,-3.60049 0.7892,-0.49286 1.34951,0.85934 1.34951,3.25681 0,0.83388 0.071,1.39331 0.17679,1.39331 0.0972,0 0.52658,-0.32243 0.9541,-0.7165 z m -8.86943,0.0678 c 0.16644,-0.0376 0.30262,-0.21155 0.30262,-0.38654 0,-0.28376 0.0578,-0.29641 0.53664,-0.11701 0.38688,0.14502 0.45226,0.21809 0.23428,0.26189 -0.18316,0.0367 -0.22873,0.10624 -0.11559,0.17615 0.1027,0.0635 -0.13892,0.11956 -0.53693,0.12465 -0.39801,0.006 -0.58746,-0.0215 -0.42102,-0.0593 z m -1.85899,-0.90766 c -0.0587,-0.0951 -0.0244,-0.17293 0.0762,-0.17293 0.10073,0 0.18314,0.0779 0.18314,0.17293 0,0.0951 -0.0344,0.17293 -0.0762,0.17293 -0.0419,0 -0.12436,-0.0779 -0.18314,-0.17293 z m 0.51879,-0.17293 c -0.0587,-0.0951 -0.0245,-0.17292 0.0763,-0.17292 0.10072,0 0.18312,0.0779 0.18312,0.17292 0,0.0951 -0.0344,0.17293 -0.0762,0.17293 -0.0419,0 -0.12435,-0.0779 -0.18313,-0.17293 z m 0.30401,-0.28699 c -0.26831,-0.10838 0.0334,-0.75193 0.35055,-0.74794 0.15536,0.002 0.15225,0.0394 -0.012,0.14353 -0.12239,0.0778 -0.17229,0.27047 -0.11119,0.42968 0.11722,0.30548 0.11,0.31104 -0.22742,0.17473 z m 0.56064,-0.23179 c -0.0587,-0.0951 -0.0244,-0.17293 0.0762,-0.17293 0.10072,0 0.18315,0.0779 0.18315,0.17293 0,0.0951 -0.0344,0.17292 -0.0762,0.17292 -0.0419,0 -0.12436,-0.0779 -0.18314,-0.17292 z M 267.67,165.39809 c 0.0195,-0.68509 0.22491,-0.81207 0.27389,-0.16927 0.0207,0.27249 -0.0358,0.54087 -0.12557,0.59639 -0.0899,0.0555 -0.15659,-0.13646 -0.14832,-0.42712 z m 1.70497,-0.44368 c 0.009,-0.20145 0.0493,-0.24242 0.10449,-0.10447 0.0499,0.12482 0.0438,0.27399 -0.0137,0.33146 -0.0574,0.0574 -0.0983,-0.0448 -0.0908,-0.22699 z m -4.52096,-0.43877 c -0.11497,-0.21481 -0.12361,-0.32182 -0.0208,-0.25833 0.0965,0.0595 0.20669,0.0145 0.24492,-0.10007 0.0439,-0.13157 0.1111,-0.10006 0.18227,0.0854 0.0619,0.16163 0.0327,0.29388 -0.0649,0.29388 -0.0977,0 -0.12962,0.0779 -0.0709,0.17295 0.0587,0.095 0.0661,0.17291 0.0163,0.17291 -0.0498,0 -0.17891,-0.16502 -0.28686,-0.36672 z m 0.71965,-0.21834 c -0.15136,-0.18235 -0.14425,-0.26003 0.03,-0.32684 0.13583,-0.0522 0.23842,0.0448 0.25305,0.23918 0.0293,0.38977 -0.0197,0.40496 -0.28298,0.0877 z m 3.89263,-0.0344 c -0.17509,-0.45624 -0.12567,-0.55544 0.40975,-0.82255 l 0.51471,-0.25676 -0.25533,0.61107 c -0.14043,0.33611 -0.25532,0.6405 -0.25532,0.67644 0,0.18951 -0.32369,0.0266 -0.41381,-0.2082 z m 0.41381,-0.3317 c 0,-0.14266 -0.0779,-0.2594 -0.17294,-0.2594 -0.0951,0 -0.17291,0.11674 -0.17291,0.2594 0,0.14266 0.0779,0.25939 0.17291,0.25939 0.0951,0 0.17294,-0.11673 0.17294,-0.25939 z m -3.80443,0.19143 c 0,-0.0374 0.12076,-0.1143 0.26837,-0.17096 0.1539,-0.0592 0.2233,-0.03 0.16273,0.0679 -0.10155,0.16432 -0.4311,0.24305 -0.4311,0.10298 z m 0,-0.45083 c 0,-0.0951 0.0824,-0.17293 0.18313,-0.17293 0.10074,0 0.13505,0.0779 0.0762,0.17293 -0.0588,0.0951 -0.14119,0.17293 -0.18313,0.17293 -0.0419,0 -0.0763,-0.0779 -0.0763,-0.17293 z m 8.21237,-0.17575 c -0.0597,-0.0967 -0.17224,-0.13643 -0.25001,-0.0884 -0.0779,0.048 -0.24748,-0.048 -0.37714,-0.21334 -0.21334,-0.27215 -0.20698,-0.27816 0.067,-0.0634 0.42395,0.33249 0.39885,-0.062 -0.0335,-0.52609 -0.30545,-0.32783 -0.36085,-0.33597 -0.60766,-0.0891 -0.2468,0.24682 -0.24376,0.28776 0.0335,0.44917 0.16777,0.0977 0.22722,0.17752 0.1321,0.17739 -0.21641,-3.6e-4 -0.77817,-0.41853 -0.77817,-0.57932 0,-0.0659 0.23335,-0.20099 0.51858,-0.30042 0.28521,-0.0994 0.47518,-0.25101 0.42212,-0.33685 -0.11564,-0.18708 0.10847,-0.20141 0.37123,-0.0238 0.10334,0.07 0.40255,0.49671 0.66492,0.94847 0.3757,0.64695 0.4206,0.82142 0.21138,0.82142 -0.14608,0 -0.31448,-0.0791 -0.37423,-0.17576 z m -5.69757,-0.18196 c 0.0567,-0.0917 0.1887,-0.11378 0.29339,-0.049 0.1255,0.0775 0.14955,0.0112 0.0706,-0.19456 -0.10202,-0.26587 -0.0801,-0.27926 0.14772,-0.0902 0.31113,0.25822 0.2708,0.33 -0.24082,0.42854 -0.21158,0.0406 -0.32915,-3.6e-4 -0.27085,-0.0948 z m -2.16893,-0.14067 c 0,-0.0951 0.0779,-0.22103 0.17292,-0.2798 0.0951,-0.0587 0.17293,-0.0291 0.17293,0.0659 0,0.0951 -0.0779,0.22102 -0.17293,0.27979 -0.0951,0.0587 -0.17292,0.0291 -0.17292,-0.0659 z m 3.11271,-0.2798 c 0,-0.14267 0.0779,-0.25939 0.17291,-0.25939 0.0951,0 0.17294,0.11672 0.17294,0.25939 0,0.14267 -0.0779,0.25939 -0.17294,0.25939 -0.0951,0 -0.17291,-0.11672 -0.17291,-0.25939 z m -2.07515,-0.0762 c 0,-0.0895 0.0769,-0.21026 0.17095,-0.26838 0.098,-0.0605 0.12701,0.01 0.0679,0.16273 -0.11496,0.29958 -0.23892,0.3544 -0.23892,0.10565 z m 3.30814,-0.55116 c 0.0379,-0.41649 -0.0133,-0.56871 -0.17891,-0.53277 -0.15249,0.033 -0.19399,-0.0485 -0.12121,-0.23809 0.0609,-0.15861 0.022,-0.39524 -0.0865,-0.52585 -0.2471,-0.29773 -0.0337,-0.31394 0.26058,-0.0197 0.11975,0.11973 0.18553,0.31427 0.14618,0.43232 -0.0392,0.11803 0.0211,0.2146 0.1343,0.2146 0.11322,0 0.16469,0.10725 0.11439,0.23833 -0.0504,0.13108 -0.0262,0.30617 0.0535,0.38909 0.0798,0.083 0.028,0.25751 -0.11522,0.38798 -0.22768,0.20759 -0.25355,0.16438 -0.20721,-0.34585 z m -0.83276,0.0654 c -0.0593,-0.16644 -0.13921,-0.36099 -0.17771,-0.43232 -0.0385,-0.0713 0.0124,-0.1297 0.11312,-0.1297 0.10072,0 0.18313,0.11674 0.18313,0.25941 0,0.14265 0.0779,0.25939 0.17294,0.25939 0.0951,0 0.17293,0.0779 0.17293,0.17292 0,0.29017 -0.34975,0.19249 -0.46441,-0.1297 z m 1.71814,-0.0486 c -0.214,-0.0861 -0.38909,-0.19781 -0.38909,-0.24843 0,-0.16785 0.27522,-0.0955 0.61543,0.16185 0.38257,0.28936 0.32907,0.30983 -0.22634,0.0865 z m -4.64065,-0.27778 c 0.0557,-0.14515 0.10128,-0.30199 0.10128,-0.34859 0,-0.0466 0.11672,0.032 0.25939,0.17473 0.33843,0.33843 0.32862,0.37821 -0.10127,0.4106 -0.25771,0.0194 -0.33176,-0.0482 -0.2594,-0.23674 z m 5.039,-0.0459 c -0.3131,-0.12251 -0.3076,-0.13929 0.0789,-0.24037 0.22854,-0.0597 0.45134,-0.0728 0.49511,-0.0291 0.0438,0.0438 -0.0158,0.0796 -0.13234,0.0796 -0.11658,0 -0.16386,0.0779 -0.10508,0.17292 0.12112,0.196 0.12105,0.196 -0.3366,0.0169 z m 1.40068,-0.39285 c -0.17404,-0.0974 -0.57648,-0.14674 -0.8943,-0.10963 -0.31781,0.0371 -0.53464,-0.003 -0.48186,-0.0879 0.0527,-0.0855 -0.0585,-0.10632 -0.24711,-0.0464 -0.20933,0.0665 -0.4283,0.007 -0.56161,-0.1544 -0.14954,-0.18018 -0.15724,-0.2633 -0.0244,-0.2633 0.10674,0 0.19409,0.0779 0.19409,0.17292 0,0.0951 0.0973,0.17014 0.21618,0.16672 0.11888,-0.004 -3.6e-4,-0.18344 -0.26502,-0.40004 -0.65558,-0.53663 -0.76937,-1.23266 -0.25615,-1.56683 0.60428,-0.39343 1.36816,-0.47092 1.80715,-0.18329 0.35572,0.23308 0.38115,0.22891 0.29207,-0.0479 -0.0795,-0.24704 -0.0646,-0.25667 0.0804,-0.0521 0.0978,0.13811 0.14083,0.31101 0.0956,0.38419 -0.0451,0.0733 0.0379,0.31657 0.18495,0.54085 0.14695,0.22428 0.21504,0.45993 0.15129,0.52367 -0.0637,0.0637 0.0169,0.1159 0.17906,0.1159 0.26037,0 0.25356,0.0445 -0.0578,0.37873 -0.26062,0.27974 -0.29758,0.41288 -0.14145,0.50938 0.33325,0.20596 0.0819,0.31673 -0.27083,0.11935 z m -0.11298,-0.84311 c 0,-0.59127 -0.49919,-1.36334 -0.9555,-1.47788 -0.27096,-0.068 -0.59494,-1.7e-4 -0.87436,0.18284 -0.40532,0.26557 -0.42274,0.32362 -0.20034,0.66754 0.271,0.41909 1.26032,0.98126 1.72757,0.98167 0.18988,1.6e-4 0.30263,-0.13179 0.30263,-0.35417 z m 1.05122,0.77235 c 0.009,-0.20145 0.0492,-0.24245 0.10448,-0.10447 0.0499,0.12481 0.0438,0.27398 -0.0136,0.33143 -0.0575,0.0574 -0.0983,-0.0448 -0.0908,-0.22696 z m -5.99721,-0.11529 c -0.0684,-0.11888 -0.0606,-0.15847 0.0171,-0.088 0.078,0.0706 0.26541,0.0316 0.41682,-0.0865 0.24357,-0.18993 0.24796,-0.17979 0.0379,0.088 -0.28288,0.36069 -0.31111,0.36588 -0.4719,0.0865 z m -0.63495,-0.29163 c -0.0606,-0.23173 -0.0147,-0.30337 0.15325,-0.23894 0.27229,0.10448 0.31419,0.3345 0.0865,0.47519 -0.0843,0.0521 -0.1922,-0.0542 -0.23981,-0.23625 z m 0.79977,-0.14243 c 0.0628,-0.10169 0.0165,-0.2243 -0.10298,-0.27246 -0.15549,-0.0627 -0.15869,-0.0915 -0.0113,-0.10124 0.29759,-0.0197 0.44055,0.28631 0.20247,0.43345 -0.12069,0.0746 -0.15632,0.0505 -0.0883,-0.0597 z m -0.0609,-0.69353 c 0,-0.21836 0.49474,-0.42081 0.70731,-0.28943 0.0865,0.0534 0.15612,0.18991 0.15468,0.3032 -0.002,0.12926 -0.0612,0.11351 -0.15976,-0.0424 -0.13018,-0.20574 -0.20377,-0.20953 -0.42966,-0.022 -0.15126,0.12553 -0.27257,0.14806 -0.27257,0.0506 z m 4.06504,-1.59405 c -0.0606,-0.098 0.01,-0.12701 0.16272,-0.0679 0.29958,0.11495 0.35439,0.2389 0.10565,0.2389 -0.0895,0 -0.21025,-0.0769 -0.26837,-0.17093 z m 2.91118,-0.05 c -0.08,-0.13587 -0.26227,-0.2912 -0.40494,-0.34519 -0.21742,-0.0823 -0.21386,-0.10038 0.022,-0.11182 0.30294,-0.0146 0.78075,0.45168 0.62369,0.60875 -0.0525,0.0525 -0.16075,-0.0158 -0.2408,-0.15174 z m -38.06086,8.8882 c 0.2305,-0.27393 0.5505,-0.96644 0.71113,-1.53892 l 0.29205,-1.04086 0.61026,0.18727 c 0.33562,0.10303 0.80637,0.36907 1.04609,0.59124 0.38903,0.36054 0.48536,0.38021 0.8967,0.18305 0.53433,-0.25609 0.67926,-0.72 0.34967,-1.1193 -0.34632,-0.41958 -1.6623,-0.95007 -2.05087,-0.82675 -0.64436,0.20452 -0.33998,-0.0683 0.68674,-0.61554 1.25662,-0.66977 1.63486,-1.0582 1.48629,-1.52631 -0.24351,-0.76726 -1.37595,-0.55457 -2.55391,0.4797 l -0.61981,0.5442 0.0803,-1.34399 c 0.0442,-0.73919 0.008,-1.44957 -0.0809,-1.57864 -0.25518,-0.37128 -0.88305,-0.064 -1.1917,0.58327 -0.23309,0.48879 -0.24496,0.73215 -0.0766,1.57041 0.10958,0.54557 0.16429,1.02688 0.1216,1.06961 -0.0427,0.0427 -0.32669,-0.01 -0.63107,-0.11532 -0.91789,-0.31997 -1.78059,-0.24216 -2.17518,0.19619 -0.86653,0.96267 -0.62227,1.28513 1.09433,1.44468 l 1.21099,0.11254 -0.31597,0.61976 c -0.30806,0.60422 -0.4411,2.26607 -0.20068,2.50649 0.27029,0.27029 0.92102,0.0803 1.31063,-0.38278 z m 25.37799,0.17123 c 0,-0.0846 0.35503,-0.63617 0.78897,-1.22562 l 0.78895,-1.07172 -0.88382,-0.93451 c -0.4861,-0.51398 -1.12085,-1.44103 -1.41055,-2.06011 -0.33019,-0.70557 -0.6013,-1.0838 -0.72655,-1.01355 -0.8892,0.49874 -2.21207,1.72861 -2.98828,2.7782 -0.51258,0.69312 -1.00924,1.26022 -1.10367,1.26022 -0.36303,0 -0.14641,0.29385 0.41342,0.56081 0.3218,0.15346 0.85735,0.51805 1.19009,0.81021 0.73566,0.64593 1.06749,0.66722 1.444,0.0926 l 0.28738,-0.4386 0.31008,0.50988 c 0.17055,0.28044 0.45155,0.59217 0.62447,0.69274 0.38468,0.22374 1.26551,0.25119 1.26551,0.0395 z m 19.46452,-1.92029 c 0.51677,-0.7017 1.45152,-1.264 2.43626,-1.46555 0.86105,-0.17622 1.68728,0.27366 2.34253,1.27561 0.62891,0.9616 0.91432,1.08966 1.06759,0.47899 0.0554,-0.22097 0.29531,-0.68832 0.53301,-1.0386 0.31976,-0.47121 0.40544,-0.7705 0.3294,-1.15075 -0.13333,-0.66663 -0.34854,-0.82955 -1.18589,-0.89784 -0.45151,-0.0367 -0.69968,-0.1453 -0.72177,-0.31551 -0.0185,-0.14268 -0.0831,-0.63464 -0.14358,-1.09328 -0.14991,-1.13708 -0.60033,-1.57305 -1.47988,-1.43241 -0.45203,0.0722 -0.8587,0.014 -1.26962,-0.18195 -0.70594,-0.33665 -1.13993,-0.1246 -1.13993,0.55699 0,0.59456 -0.24119,0.63928 -0.79885,0.1481 -0.84631,-0.74538 -1.42899,-0.97953 -2.11653,-0.85054 -0.59231,0.11111 -0.60716,0.13002 -0.2816,0.35856 1.64594,1.15546 1.88572,1.59376 1.88496,3.44563 -5.2e-4,1.09385 -0.0811,1.53726 -0.38536,2.11836 l -0.3848,0.73496 h 0.40267 c 0.26949,0 0.57091,-0.22845 0.91139,-0.69077 z m -15.06899,-6.6772 c 0.40573,-0.15568 0.34066,-1.12748 -0.12151,-1.81489 -0.21726,-0.32319 -0.75974,-0.85815 -1.20548,-1.18881 l -0.81044,-0.60123 0.90804,-0.1813 c 0.90968,-0.18164 1.65162,-0.59965 2.26068,-1.27356 0.30528,-0.33782 0.30781,-0.38693 0.041,-0.79409 -0.1564,-0.23871 -0.48623,-0.48468 -0.73297,-0.5466 -0.65882,-0.16535 -2.24273,0.2425 -2.81639,0.72521 -0.27419,0.23069 -0.53622,0.41946 -0.58229,0.41946 -0.046,0 -0.0105,-0.34333 0.079,-0.76297 0.2113,-0.9907 -0.0671,-2.04344 -0.66445,-2.51339 -0.59128,-0.46512 -0.85483,-0.448 -1.19938,0.0779 -0.24317,0.37112 -0.25423,0.5504 -0.0774,1.25374 0.11345,0.45138 0.40283,1.07873 0.64306,1.39408 0.24023,0.31535 0.40764,0.60251 0.37205,0.63812 -0.0356,0.0356 -0.43682,-0.16684 -0.89158,-0.44991 -0.45479,-0.28303 -1.04909,-0.55908 -1.32069,-0.61339 -0.63087,-0.12619 -1.73528,0.23328 -1.73528,0.56479 0,0.58078 1.51209,1.61193 2.75875,1.8813 l 0.59714,0.12903 -0.60982,0.31285 c -1.19136,0.6112 -2.26202,2.13928 -1.99196,2.84301 0.25267,0.65849 1.83181,-0.0684 3.13212,-1.44178 l 0.68705,-0.72565 0.37686,0.73807 c 0.42341,0.82924 0.94238,1.36506 1.70762,1.76306 0.56794,0.29539 0.78337,0.32546 1.19635,0.16698 z m 5.83896,-1.66178 c -0.12409,-0.1241 -0.20464,-0.13431 -0.20464,-0.0259 0,0.23082 0.20453,0.43533 0.31992,0.31992 0.0492,-0.0491 -0.003,-0.18144 -0.11528,-0.29399 z"
       id="path325" /></g></svg>
